<?xml version="1.0" encoding="iso-8859-1"?>
<!-- Generator: Adobe Illustrator 19.0.0, SVG Export Plug-In . SVG Version: 6.00 Build 0)  -->
<svg version="1.1" id="Capa_1" xmlns="http://www.w3.org/2000/svg" xmlns:xlink="http://www.w3.org/1999/xlink" x="0px" y="0px"
	 viewBox="0 0 512.001 512.001" style="enable-background:new 0 0 512.001 512.001;" xml:space="preserve">
<g>
	<g>
		<path style='fill: white;' d="M290.243,115.216h-19.181c0.133-2.366,0.493-4.673,1.061-6.897c3.715-14.523,16.251-25.549,31.538-27.014
			c1.144-0.11,2.301-0.17,3.473-0.17h22.802c36.467,0,66.135-29.668,66.135-66.135c0-8.284-6.716-15-15-15s-15,6.716-15,15
			c0,5.784-1.374,11.251-3.8,16.103c-4.335,8.669-12.05,15.364-21.411,18.34c-3.448,1.096-7.117,1.692-10.923,1.692h-22.802
			c-35.778,0-64.991,28.563-66.083,64.082h-19.295c-58.354,0-105.828,47.474-105.828,105.828v171.81
			c0,65.697,53.448,119.146,119.146,119.146h41.852c65.697,0,119.146-53.448,119.146-119.146v-171.81
			C396.071,162.69,348.596,115.216,290.243,115.216z M145.929,221.044c0-41.812,34.016-75.828,75.828-75.828H241v106.451h-95.071
			V221.044z M366.071,392.855c0,49.155-39.991,89.146-89.146,89.146h-41.851V482c-49.155,0-89.146-39.99-89.146-89.146V281.667
			h220.143V392.855z M366.071,251.667H271V145.216h19.243c41.812,0,75.828,34.016,75.828,75.828V251.667z"/>
	</g>
</g>
</svg>
