<?xml version="1.0" encoding="iso-8859-1"?>
<!-- Generator: Adobe Illustrator 19.0.0, SVG Export Plug-In . SVG Version: 6.00 Build 0)  -->
<svg version="1.1" id="Capa_1" xmlns="http://www.w3.org/2000/svg" xmlns:xlink="http://www.w3.org/1999/xlink" x="0px" y="0px"
	 viewBox="0 0 475.569 475.569" style="enable-background:new 0 0 475.569 475.569;" xml:space="preserve">
<g>
	<g>
		<path style="fill: #fff;" d="M447.015,53.662l-5.908-11.815l-52.185,50.215l-26.585-25.6l53.169-50.215l-12.8-5.908
			c-12.8-5.908-26.585-8.861-41.354-8.861c-53.169,0-96.492,41.354-96.492,92.554c0,8.861,0.984,16.739,3.938,25.6L133.907,258.462
			c-10.831-3.938-21.661-5.908-33.477-5.908c-53.169,0-96.492,41.354-96.492,92.554c0,14.769,3.938,29.538,10.831,42.338
			l5.908,11.815l52.185-50.215l23.631,22.646l-52.185,50.215l12.8,5.908c13.785,6.892,28.554,9.846,43.323,9.846
			c53.169,0,95.508-41.354,94.523-93.538c0-9.846-1.969-19.692-4.923-28.554l132.923-136.861
			c11.815,4.923,23.631,6.892,36.431,6.892c53.169,0,96.492-41.354,96.492-92.554C455.877,79.262,452.923,66.462,447.015,53.662z
			 M359.384,166.892c-11.815,0-23.631-2.954-34.462-7.877l-5.908-2.954L167.384,311.631l2.954,5.908
			c3.938,8.861,5.908,17.723,5.908,27.569c0,40.369-34.462,72.862-76.8,72.862c-6.892,0-13.785-0.984-20.677-2.954l44.308-44.308
			l-52.185-50.215L24.615,364.8c-1.969-6.892-2.954-13.785-2.954-20.677c0-40.369,34.462-72.861,76.8-72.861
			c11.815,0,22.646,1.969,32.492,6.892l5.908,2.954l153.6-156.554l-1.969-5.908c-2.954-7.877-4.923-16.739-4.923-24.615
			c0-40.369,34.462-72.862,76.8-72.862c5.908,0,12.8,0,18.708,1.969l-45.292,43.323l55.139,53.169l45.292-43.323
			c0.985,5.907,1.969,11.815,1.969,17.723C436.184,134.4,401.723,166.892,359.384,166.892z"/>
	</g>
</g>
<g>
	<g>
		<path style="fill: #fff;" d="M459.815,387.446L329.846,263.384c-5.908-5.908-15.754-5.908-21.661,0L256,313.6c-2.954,2.954-4.923,6.892-4.923,10.831
			c0,3.938,1.969,7.877,4.923,10.831l129.969,124.062c10.831,9.846,23.631,14.769,37.415,14.769s27.569-4.923,36.431-15.754
			c9.846-8.861,15.754-21.662,15.754-35.446C475.569,410.092,469.661,397.292,459.815,387.446z M446.031,445.538
			c-12.8,12.8-33.477,11.815-46.277,0L273.723,324.431l45.292-43.323l127.015,121.108c6.892,5.908,9.846,13.785,9.846,21.662
			C455.877,431.754,451.938,439.63,446.031,445.538z"/>
	</g>
</g>
<g>
	<g>
		
			<rect style="fill: #fff;" x="256.164" y="241.803" transform="matrix(0.6871 -0.7266 0.7266 0.6871 -114.2696 278.3409)" width="19.693" height="60.063"/>
	</g>
</g>
<g>
	<g>
		
			<rect style="fill: #fff;" x="137.037" y="94.835" transform="matrix(0.691 -0.7228 0.7228 0.691 -70.1377 155.5503)" width="19.691" height="129.964"/>
	</g>
</g>
<g>
	<g>
		<path style="fill: #fff;" d="M43.323,20.185L0,60.554l87.631,82.708l44.308-41.354L43.323,20.185z M28.554,60.554l14.769-13.785l60.062,55.138
			l-15.754,13.785L28.554,60.554z"/>
	</g>
</g>
</svg>
