<svg xmlns="http://www.w3.org/2000/svg" viewBox="0 0 512.001 512.001"><path d="M290.243 115.216h-19.181a36.03 36.03 0 011.061-6.897c3.715-14.523 16.251-25.549 31.538-27.014a36.25 36.25 0 013.473-.17h22.802c36.467 0 66.135-29.668 66.135-66.135 0-8.284-6.716-15-15-15s-15 6.716-15 15a35.908 35.908 0 01-3.8 16.103c-4.335 8.669-12.05 15.364-21.411 18.34a35.998 35.998 0 01-10.923 1.692h-22.802c-35.778 0-64.991 28.563-66.083 64.082h-19.295c-58.354 0-105.828 47.474-105.828 105.828v171.81c0 65.697 53.448 119.146 119.146 119.146h41.852c65.697 0 119.146-53.448 119.146-119.146v-171.81c-.002-58.355-47.477-105.829-105.83-105.829zM145.929 221.044c0-41.812 34.016-75.828 75.828-75.828H241v106.451h-95.071v-30.623zm220.142 171.811c0 49.155-39.991 89.146-89.146 89.146h-41.851V482c-49.155 0-89.146-39.99-89.146-89.146V281.667h220.143v111.188zm0-141.188H271V145.216h19.243c41.812 0 75.828 34.016 75.828 75.828v30.623z" fill="#fff"/></svg>