<svg xmlns="http://www.w3.org/2000/svg" viewBox="0 0 43.856 43.856"><path d="M21.936 0c3.809 0 7.285 1.555 9.777 4.063a13.807 13.807 0 014.063 9.793c0 3.873-2.492 8.539-4.666 12.619-.667 1.238-1.302 2.429-1.809 3.492l-6.365 13.254a1.117 1.117 0 01-2.016 0l-6.365-13.254c-.508-1.063-1.143-2.254-1.794-3.492-2.19-4.079-4.682-8.746-4.682-12.619 0-3.825 1.555-7.286 4.063-9.793A13.81 13.81 0 0121.936 0zm0 7.063a6.776 6.776 0 016.777 6.793 6.77 6.77 0 01-1.984 4.794 6.765 6.765 0 01-4.793 1.984 6.831 6.831 0 01-4.809-1.984 6.767 6.767 0 01-1.984-4.794c0-1.889.762-3.587 1.984-4.809a6.831 6.831 0 014.809-1.984zm3.206 3.572a4.51 4.51 0 00-3.206-1.333 4.52 4.52 0 00-3.222 1.333 4.52 4.52 0 00-1.333 3.222 4.51 4.51 0 001.333 3.206 4.52 4.52 0 003.222 1.333 4.51 4.51 0 003.206-1.333 4.51 4.51 0 001.333-3.206 4.511 4.511 0 00-1.333-3.222zm5-4.984c-2.111-2.111-5-3.413-8.206-3.413a11.524 11.524 0 00-8.206 3.413 11.524 11.524 0 00-3.413 8.206c0 3.333 2.349 7.714 4.412 11.571.667 1.254 1.302 2.46 1.841 3.571l5.365 11.158 5.349-11.158c.54-1.111 1.175-2.317 1.841-3.571 2.063-3.857 4.412-8.238 4.412-11.571a11.567 11.567 0 00-3.395-8.206z" fill="#fff"/></svg>