<svg xmlns="http://www.w3.org/2000/svg" viewBox="0 0 512 512"><path data-original="#FFAD61" data-old_color="#FBFAFA" fill="#fff" d="M11.497 10.199h428.326v169.144H11.497z"/><path d="M225.661 501.801c-15.457 0-27.988-12.531-27.988-27.988V342.395h55.974v131.419c.001 15.456-12.529 27.987-27.986 27.987z" data-original="#72BEDE" data-old_color="#72BEDE" fill="#f7fafb"/><path d="M500.504 86.395h-50.481V10.199C450.023 4.567 445.457 0 439.824 0H11.497C5.864 0 1.298 4.567 1.298 10.199v169.14c0 5.632 4.566 10.199 10.199 10.199h428.326c5.633 0 10.199-4.567 10.199-10.199v-72.545h40.282v124.835l-266.423 47.183a10.199 10.199 0 00-8.42 10.043v43.342h-17.787c-5.633 0-10.199 4.567-10.199 10.199v131.419c0 21.056 17.131 38.186 38.186 38.186 21.056 0 38.187-17.131 38.187-38.186v-131.42c0-5.632-4.566-10.199-10.199-10.199h-17.788v-34.789l266.423-47.183a10.199 10.199 0 008.42-10.043V96.595c-.001-5.632-4.568-10.2-10.2-10.2zm-70.879 82.745H21.696v-30.708h309.667c5.633 0 10.199-4.567 10.199-10.199s-4.566-10.199-10.199-10.199H21.696V20.398h407.927V169.14h.002zM243.448 473.814c0 9.808-7.98 17.787-17.788 17.787s-17.787-7.98-17.787-17.787v-121.22h35.576v121.22z" data-original="#534741" class="active-path" data-old_color="#F7F6F6" fill="#fff"/><path d="M372.737 138.432h8.518c5.633 0 10.199-4.567 10.199-10.199s-4.566-10.199-10.199-10.199h-8.518c-5.633 0-10.199 4.567-10.199 10.199s4.566 10.199 10.199 10.199z" data-original="#534741" class="active-path" data-old_color="#F7F6F6" fill="#fff"/></svg>