<svg xmlns="http://www.w3.org/2000/svg" viewBox="0 0 475.569 475.569"><path d="M447.015 53.662l-5.908-11.815-52.185 50.215-26.585-25.6 53.169-50.215-12.8-5.908c-12.8-5.908-26.585-8.861-41.354-8.861-53.169 0-96.492 41.354-96.492 92.554 0 8.861.984 16.739 3.938 25.6l-134.891 138.83c-10.831-3.938-21.661-5.908-33.477-5.908-53.169 0-96.492 41.354-96.492 92.554 0 14.769 3.938 29.538 10.831 42.338l5.908 11.815 52.185-50.215 23.631 22.646-52.185 50.215 12.8 5.908c13.785 6.892 28.554 9.846 43.323 9.846 53.169 0 95.508-41.354 94.523-93.538 0-9.846-1.969-19.692-4.923-28.554l132.923-136.861c11.815 4.923 23.631 6.892 36.431 6.892 53.169 0 96.492-41.354 96.492-92.554 0-13.784-2.954-26.584-8.862-39.384zm-87.631 113.23c-11.815 0-23.631-2.954-34.462-7.877l-5.908-2.954-151.63 155.57 2.954 5.908c3.938 8.861 5.908 17.723 5.908 27.569 0 40.369-34.462 72.862-76.8 72.862-6.892 0-13.785-.984-20.677-2.954l44.308-44.308-52.185-50.215L24.615 364.8c-1.969-6.892-2.954-13.785-2.954-20.677 0-40.369 34.462-72.861 76.8-72.861 11.815 0 22.646 1.969 32.492 6.892l5.908 2.954 153.6-156.554-1.969-5.908c-2.954-7.877-4.923-16.739-4.923-24.615 0-40.369 34.462-72.862 76.8-72.862 5.908 0 12.8 0 18.708 1.969l-45.292 43.323 55.139 53.169 45.292-43.323c.985 5.907 1.969 11.815 1.969 17.723-.001 40.37-34.462 72.862-76.801 72.862z" fill="#fff"/><path d="M459.815 387.446L329.846 263.384c-5.908-5.908-15.754-5.908-21.661 0L256 313.6c-2.954 2.954-4.923 6.892-4.923 10.831 0 3.938 1.969 7.877 4.923 10.831l129.969 124.062c10.831 9.846 23.631 14.769 37.415 14.769s27.569-4.923 36.431-15.754a47.665 47.665 0 0015.754-35.446c0-12.801-5.908-25.601-15.754-35.447zm-13.784 58.092c-12.8 12.8-33.477 11.815-46.277 0L273.723 324.431l45.292-43.323L446.03 402.216c6.892 5.908 9.846 13.785 9.846 21.662.001 7.876-3.938 15.752-9.845 21.66z" fill="#fff"/><path fill="#fff" d="M237.435 258.355l13.53-14.309 43.643 41.27-13.531 14.308zM93.102 122.03l13.606-14.232 93.938 89.805-13.606 14.233z"/><path d="M43.323 20.185L0 60.554l87.631 82.708 44.308-41.354-88.616-81.723zM28.554 60.554l14.769-13.785 60.062 55.138-15.754 13.785-59.077-55.138z" fill="#fff"/></svg>